<svg id="visual" viewBox="0 0 960 540" width="960" height="540" xmlns="http://www.w3.org/2000/svg" xmlns:xlink="http://www.w3.org/1999/xlink" version="1.1"><rect x="0" y="0" width="960" height="540" fill="#111111"></rect><defs><linearGradient id="grad1_0" x1="43.8%" y1="100%" x2="100%" y2="0%"><stop offset="14.444444444444446%" stop-color="#fe8a01" stop-opacity="1"></stop><stop offset="85.55555555555554%" stop-color="#fe8a01" stop-opacity="1"></stop></linearGradient></defs><defs><linearGradient id="grad1_1" x1="43.8%" y1="100%" x2="100%" y2="0%"><stop offset="14.444444444444446%" stop-color="#fe8a01" stop-opacity="1"></stop><stop offset="85.55555555555554%" stop-color="#a85f17" stop-opacity="1"></stop></linearGradient></defs><defs><linearGradient id="grad1_2" x1="43.8%" y1="100%" x2="100%" y2="0%"><stop offset="14.444444444444446%" stop-color="#593618" stop-opacity="1"></stop><stop offset="85.55555555555554%" stop-color="#a85f17" stop-opacity="1"></stop></linearGradient></defs><defs><linearGradient id="grad1_3" x1="43.8%" y1="100%" x2="100%" y2="0%"><stop offset="14.444444444444446%" stop-color="#593618" stop-opacity="1"></stop><stop offset="85.55555555555554%" stop-color="#111111" stop-opacity="1"></stop></linearGradient></defs><defs><linearGradient id="grad2_0" x1="0%" y1="100%" x2="56.3%" y2="0%"><stop offset="14.444444444444446%" stop-color="#fe8a01" stop-opacity="1"></stop><stop offset="85.55555555555554%" stop-color="#fe8a01" stop-opacity="1"></stop></linearGradient></defs><defs><linearGradient id="grad2_1" x1="0%" y1="100%" x2="56.3%" y2="0%"><stop offset="14.444444444444446%" stop-color="#a85f17" stop-opacity="1"></stop><stop offset="85.55555555555554%" stop-color="#fe8a01" stop-opacity="1"></stop></linearGradient></defs><defs><linearGradient id="grad2_2" x1="0%" y1="100%" x2="56.3%" y2="0%"><stop offset="14.444444444444446%" stop-color="#a85f17" stop-opacity="1"></stop><stop offset="85.55555555555554%" stop-color="#593618" stop-opacity="1"></stop></linearGradient></defs><defs><linearGradient id="grad2_3" x1="0%" y1="100%" x2="56.3%" y2="0%"><stop offset="14.444444444444446%" stop-color="#111111" stop-opacity="1"></stop><stop offset="85.55555555555554%" stop-color="#593618" stop-opacity="1"></stop></linearGradient></defs><g transform="translate(960, 540)"><path d="M-324 0C-288.6 -29.1 -253.1 -58.1 -243 -100.6C-232.8 -143.2 -247.9 -199.2 -229.1 -229.1C-210.3 -259 -157.5 -262.9 -113.7 -274.4C-69.8 -285.9 -34.9 -304.9 0 -324L0 0Z" fill="#352416"></path><path d="M-243 0C-216.4 -21.8 -189.9 -43.6 -182.2 -75.5C-174.6 -107.4 -186 -149.4 -171.8 -171.8C-157.7 -194.3 -118.1 -197.2 -85.2 -205.8C-52.4 -214.4 -26.2 -228.7 0 -243L0 0Z" fill="#804a19"></path><path d="M-162 0C-144.3 -14.5 -126.6 -29.1 -121.5 -50.3C-116.4 -71.6 -124 -99.6 -114.6 -114.6C-105.1 -129.5 -78.7 -131.5 -56.8 -137.2C-34.9 -142.9 -17.5 -152.5 0 -162L0 0Z" fill="#d27411"></path><path d="M-81 0C-72.1 -7.3 -63.3 -14.5 -60.7 -25.2C-58.2 -35.8 -62 -49.8 -57.3 -57.3C-52.6 -64.8 -39.4 -65.7 -28.4 -68.6C-17.5 -71.5 -8.7 -76.2 0 -81L0 0Z" fill="#fe8a01"></path></g><g transform="translate(0, 0)"><path d="M324 0C298.2 36.3 272.5 72.7 252.2 104.5C232 136.3 217.3 163.5 198.7 198.7C180.1 233.9 157.7 277.1 124 299.3C90.2 321.6 45.1 322.8 0 324L0 0Z" fill="#352416"></path><path d="M243 0C223.7 27.3 204.3 54.5 189.2 78.4C174 102.2 162.9 122.6 149 149C135.1 175.4 118.3 207.8 93 224.5C67.7 241.2 33.8 242.1 0 243L0 0Z" fill="#804a19"></path><path d="M162 0C149.1 18.2 136.2 36.3 126.1 52.2C116 68.1 108.6 81.7 99.3 99.3C90.1 117 78.9 138.6 62 149.7C45.1 160.8 22.6 161.4 0 162L0 0Z" fill="#d27411"></path><path d="M81 0C74.6 9.1 68.1 18.2 63.1 26.1C58 34.1 54.3 40.9 49.7 49.7C45 58.5 39.4 69.3 31 74.8C22.6 80.4 11.3 80.7 0 81L0 0Z" fill="#fe8a01"></path></g></svg>